<mxfile host="app.diagrams.net" modified="2023-05-09T01:09:59.698Z" agent="Mozilla/5.0 (Windows NT 10.0; Win64; x64) AppleWebKit/537.36 (KHTML, like Gecko) Chrome/107.0.0.0 Safari/537.36 Edg/107.0.1418.35" version="21.2.7" etag="OeClymly_bZLlUt3_MdI" type="github">
  <diagram name="第 1 页" id="RwvoVmElmr9HkQoPy2jK">
    <mxGraphModel>
      <root>
        <mxCell id="0" />
        <mxCell id="1" parent="0" />
      </root>
    </mxGraphModel>
  </diagram>
</mxfile>
